# AST/ASF file generated using VICON BodyLanguage
# -----------------------------------------------
:version 1.10
:name VICON
:units
  mass 1.0
  length 0.45
  angle deg
:documentation
   .ast/.asf automatically generated from VICON data using
   VICON BodyBuilder and BodyLanguage model FoxedUp or BRILLIANT.MOD
:root
   order TX TY TZ RX RY RZ
   axis XYZ
   position 0 0 0  
   orientation 0 0 0 
:bonedata
  begin
     id 1 
     name lhipjoint
     direction 0.573633 -0.743009 0.344793 
     length 2.46257 
     axis 0 0 0  XYZ
  end
  begin
     id 2 
     name lfemur
     direction 0.34202 -0.939693 0  
     length 7.3842  
     axis 0 0 20  XYZ
    dof rx ry rz
    limits (-160.0 20.0)
           (-70.0 70.0)
           (-60.0 70.0)
  end
  begin
     id 3 
     name ltibia
     direction 0.34202 -0.939693 0   
     length 7.50407   
     axis 0 0 20   XYZ
    dof rx
    limits (-10.0 170.0)
  end
  begin
     id 4 
     name lfoot
     direction 0.110749 -0.304281 0.946123   
     length 1.95925   
     axis -90 7.62852e-016 20   XYZ
    dof rx rz
    limits (-45.0 90.0)
           (-70.0 20.0)
  end
  begin
     id 5 
     name ltoes
     direction 1.53554e-011 -4.21843e-011 1   
     length 0.978318   
     axis -90 7.62852e-016 20   XYZ
    dof rx
    limits (-90.0 20.0)
  end
  begin
     id 6 
     name rhipjoint
     direction -0.488109 -0.791693 0.367385   
     length 2.31113  
     axis 0 0 0  XYZ 
  end
  begin
     id 7 
     name rfemur
     direction -0.34202 -0.939693 0   
     length 7.40965   
     axis 0 0 -20   XYZ
    dof rx ry rz
    limits (-160.0 20.0)
           (-70.0 70.0)
           (-70.0 60.0)
  end
  begin
     id 8 
     name rtibia
     direction -0.34202 -0.939693 0   
     length 7.55548   
     axis 0 0 -20   XYZ
    dof rx
    limits (-10.0 170.0)
 end
 begin
     id 9 
     name rfoot
     direction -0.127594 -0.350561 0.927808   
     length 2.07199  
     axis -90 -7.62852e-016 -20   XYZ
    dof rx rz
    limits (-45.0 90.0)
           (-20.0 70.0)
  end
  begin
     id 10 
     name rtoes
     direction -1.53542e-011 -4.21909e-011 1   
     length 1.02667   
     axis -90 -7.62852e-016 -20   XYZ
    dof rx
    limits (-90.0 20.0)
  end
  begin
     id 11 
     name lowerback
     direction -0.0103342 0.997298 -0.0727278   
     length 2.02836   
     axis 0 0 0   XYZ
    dof rx ry rz
    limits (-20.0 45.0)
           (-30.0 30.0)
           (-30.0 30.0)
  end
  begin
     id 12 
     name upperback
     direction 0.0171146 0.999786 -0.011606   
     length 2.03179   
     axis 0 0 0   XYZ
    dof rx ry rz
    limits (-20.0 45.0)
           (-30.0 30.0)
           (-30.0 30.0)
  end
  begin
     id 13 
     name thorax
     direction 0.0216927 0.999513 0.0224343   
     length 2.03882   
     axis 0 0 0   XYZ
    dof rx ry rz
    limits (-20.0 45.0)
           (-30.0 30.0)
           (-30.0 30.0)
  end
  begin
     id 14 
     name lowerneck
     direction 0.000989287 0.993907 0.110221   
     length 1.75428   
     axis 0 0 0   XYZ
    dof rx ry rz
    limits (-20.0 45.0)
           (-30.0 30.0)
           (-30.0 30.0)
  end
  begin
     id 15 
     name upperneck
     direction -0.0172474 0.994813 -0.100253   
     length 1.77058   
     axis 0 0 0   XYZ
    dof rx ry rz
    limits (-20.0 45.0)
           (-30.0 30.0)
           (-30.0 30.0)
  end
  begin
     id 16
     name head
     direction -0.00486455 0.99894 -0.0457663  
     length 1.77427  
     axis 0 0 0   XYZ
    dof rx ry rz
    limits (-20.0 45.0)
           (-30.0 30.0)
           (-30.0 30.0)
  end
  begin
     id 17 
     name lclavicle
     direction 0.927314 0.333734 -0.169441  
     length 3.97584  
     axis 0 0 0   XYZ
    dof ry rz
    limits (-20.0 10.0)
           (0.0 20.0)
  end
  begin
     id 18 
     name lhumerus
     direction 1 -4.48965e-011 -3.25313e-028   
     length 4.76468   
     axis 180 -30 -90   XYZ
    dof rx ry rz
    limits (-60.0 90.0)
           (-90.0 90.0)
           (-90.0 90.0)
  end
  begin
     id 19
     name lradius
     direction 1 -4.48969e-011 -2.8465e-028   
     length 3.52712   
     axis -180 -30 -90   XYZ
    dof rx
    limits (-10.0 170.0)
  end
  begin
     id 20
     name lwrist
     direction 1 -4.4896e-011 -7.78665e-028   
     length 1.76356   
     axis 1.91374e-015 90 90   XYZ
    dof ry
    limits (-180.0 0.0)
 end
  begin
     id 21 
     name lhand
     direction 1 -4.48959e-011 -1.55733e-027   
     length 0.859564   
     axis 9.9371e-016 90 90   XYZ
    dof rx rz
    limits (-90.0 90.0)
           (-45.0 45.0)
  end
  begin
     id 22 
     name lfingers
     direction 1 -4.48965e-011 -3.11466e-027   
     length 0.693002   
     axis 1.98742e-015 90 90   XYZ
    dof rx
    limits (0.0 90.0)
  end
  begin
     id 23
     name lthumb
     direction 0.707107 -6.34948e-011 0.707107   
     length 0.995017   
     axis -90 45 2.85299e-015   XYZ
    dof rx rz
    limits (-45.0 45.0)
           (-45.0 45.0)
  end
  begin
     id 24 
     name rclavicle
     direction -0.899388 0.348209 -0.264294   
     length 3.68366  
     axis 0 0 0   XYZ 
    dof ry rz
    limits (-10.0 20.0)
           (-20.0 0.0)
  end
  begin
     id 25 
     name rhumerus
     direction -1 -4.48965e-011 -3.01536e-027  
     length 4.90577   
     axis 180 30 90   XYZ
    dof rx ry rz
    limits (-90.0 60.0)
           (-90.0 90.0)
           (-90.0 90.0)
  end
  begin
     id 26 
     name rradius
     direction -1 -4.48966e-011 3.93291e-027   
     length 3.42692   
     axis -180 30 90   XYZ
    dof rx
    limits (-10.0 170.0)
  end
  begin
     id 27 
     name rwrist
     direction -1 -4.48969e-011 -7.78665e-028   
     length 1.71346   
     axis 1.91374e-015 -90 -90   XYZ
    dof ry
    limits (-180.0 0.0)
  end
  begin
     id 28
     name rhand
     direction -1 -4.48967e-011 -1.55733e-027   
     length 0.740957   
     axis 9.9371e-016 -90 -90   XYZ
    dof rx rz
    limits (-90.0 90.0)
           (-45.0 45.0)
  end
  begin
     id 29
     name rfingers
     direction -1 -4.48949e-011 -3.11466e-027   
     length 0.597378   
     axis 1.98742e-015 -90 -90   XYZ
    dof rx
    limits (0.0 90.0)
  end
  begin
     id 30
     name rthumb
     direction -0.707107 -6.34931e-011 0.707107   
     length 0.857719   
     axis -90 -45 -2.85299e-015   XYZ
    dof rx rz
    limits (-45.0 45.0)
           (-45.0 45.0)
  end
:hierarchy
  begin
    root lhipjoint rhipjoint lowerback
    lhipjoint lfemur
    lfemur ltibia
    ltibia lfoot
    lfoot ltoes
    rhipjoint rfemur
    rfemur rtibia
    rtibia rfoot
    rfoot rtoes
    lowerback upperback
    upperback thorax
    thorax lowerneck lclavicle rclavicle
    lowerneck upperneck
    upperneck head
    lclavicle lhumerus
    lhumerus lradius
    lradius lwrist
    lwrist lhand lthumb
    lhand lfingers
    rclavicle rhumerus
    rhumerus rradius
    rradius rwrist
    rwrist rhand rthumb
    rhand rfingers
  end

#!OML:ASF I:\AllaLogoMonkeySwing\Project 1\Capture day 1\Session 1\Subject1.ASF
:FULLY-SPECIFIED
:DEGREES
255
root -3.64177 14.7675 2.93424 -25.7625 79.3497 -44.9363
lowerback 21.7587 1.68879 -2.00315
upperback 0.234082 2.05097 2.0227
thorax -12.1409 1.17944 2.7557
lowerneck -16.5131 3.49712 2.64145
upperneck -6.84068 4.59626 -2.28915
head 0.69405 2.39052 -0.915292
rclavicle -1.03368e-014 3.57812e-015
rhumerus -35.2488 0.827599 -88.9366
rradius 64.671
rwrist -15.1601
rhand -13.218 -27.5474
rfingers 7.12502
rthumb 12.883 -57.1298
lclavicle -1.03368e-014 3.57812e-015
lhumerus -43.5588 8.58237 92.5608
lradius 89.4943
lwrist 19.9729
lhand -20.2006 -25.8565
lfingers 7.12502
lthumb 6.14614 4.03432
rfemur -41.4221 -10.7604 13.3596
rtibia 72.7028
rfoot -35.247 -4.83945
rtoes -17.7551
lfemur -46.4575 9.4535 -24.4158
ltibia 82.9652
lfoot -36.1711 -6.33295
ltoes -10.6881
256
root -3.45319 14.65 3.19903 -31.4805 80.0621 -49.5232
lowerback 22.2033 1.73438 -1.76139
upperback 0.186278 2.15121 1.87885
thorax -12.4371 1.20848 2.41637
lowerneck -16.365 3.49387 2.6387
upperneck -5.78247 4.55851 -2.4917
head 1.02696 2.34587 -0.974866
rclavicle -7.95139e-015 1.43125e-014
rhumerus -31.6021 4.77448 -90.5706
rradius 70.7311
rwrist -14.1377
rhand -9.25257 -24.4721
rfingers 7.12502
rthumb 16.7033 -53.7734
lclavicle -7.95139e-015 1.43125e-014
lhumerus -40.3838 4.52166 97.135
lradius 94.1244
lwrist 20.0872
lhand -20.8962 -26.9805
lfingers 7.12502
lthumb 5.4746 2.92879
rfemur -38.9176 -8.8084 13.4101
rtibia 73.9959
rfoot -38.1948 -4.3292
rtoes -14.8726
lfemur -44.2018 9.83654 -22.7013
ltibia 83.7593
lfoot -38.2623 -7.2883
ltoes -9.96888
257
root -3.21694 14.6014 3.44571 -38.7378 81.9425 -56.23
lowerback 22.1442 1.54808 -1.86173
upperback -0.529216 1.84581 1.70367
thorax -13.21 1.0743 2.37809
lowerneck -16.3072 3.31422 1.94523
upperneck -3.99767 4.38189 -1.77178
head 1.57108 2.25105 -0.623362
rclavicle 5.56597e-015 3.18055e-015
rhumerus -29.925 9.21343 -90.8307
rradius 79.9659
rwrist -16.3779
rhand -5.94155 -23.4138
rfingers 7.12502
rthumb 19.8885 -52.4161
lclavicle 5.56597e-015 3.18055e-015
lhumerus -38.7271 -1.94725 100.896
lradius 100.707
lwrist 19.7882
lhand -21.2319 -27.2297
lfingers 7.12502
lthumb 5.15043 2.68775
rfemur -36.1903 -9.19742 13.854
rtibia 73.7902
rfoot -40.6207 -8.26071
rtoes -18.0106
lfemur -42.1969 8.47633 -21.7299
ltibia 83.5408
lfoot -39.2439 -8.25536
ltoes -9.91222
258
root -2.9066 14.6551 3.64126 -57.8788 84.1152 -75.0563
lowerback 21.2496 1.02945 -1.61665
upperback -1.32938 1.21483 1.66151
thorax -13.5827 0.771597 2.40712
lowerneck -16.1377 3.00349 1.65447
upperneck -2.23639 3.96043 -1.38716
head 2.11549 2.02218 -0.466017
rclavicle -1.55052e-014 3.18055e-015
rhumerus -28.4106 13.237 -89.5669
rradius 89.3172
rwrist -15.4734
rhand -3.75285 -22.3662
rfingers 7.12502
rthumb 21.9913 -51.1361
lclavicle -1.55052e-014 3.18055e-015
lhumerus -36.7473 -9.12609 103.09
lradius 107.275
lwrist 17.9678
lhand -20.0908 -27.6157
lfingers 7.12502
lthumb 6.25218 2.27203
rfemur -32.8593 -10.922 14.4666
rtibia 72.1807
rfoot -41.2353 -9.76122
rtoes -14.9227
lfemur -40.0279 5.89521 -20.9047
ltibia 82.178
lfoot -38.4483 -9.12361
ltoes -10.4935
259
root -2.58459 14.8206 3.84141 -102.682 84.8277 -120.367
lowerback 19.5853 0.146079 -1.16664
upperback -2.34558 0.146725 1.62187
thorax -13.7303 0.249869 2.44824
lowerneck -16.1149 2.67619 1.66946
upperneck -0.818269 3.47997 -1.22313
head 2.58971 1.76632 -0.4398
rclavicle -6.95746e-015 -3.57812e-015
rhumerus -26.918 16.2288 -87.1885
rradius 97.8728
rwrist -14.4638
rhand -4.30167 -21.7056
rfingers 7.12502
rthumb 21.4642 -50.5365
lclavicle -6.95746e-015 -3.57812e-015
lhumerus -34.2189 -15.8511 103.142
lradius 113.06
lwrist 16.2749
lhand -18.9249 -28.5683
lfingers 7.12502
lthumb 7.3776 1.28305
rfemur -30.1436 -13.6032 15.3173
rtibia 69.6378
rfoot -40.642 -9.83448
rtoes -8.50582
lfemur -38.9993 2.49152 -20.0011
ltibia 79.9761
lfoot -35.5243 -10.8102
ltoes -11.4771
260
root -2.03708 15.1388 3.97456 -104.695 85.0781 -118.487
lowerback 20.5098 0.830627 -1.71774
upperback -1.95868 0.913934 1.58307
thorax -13.8711 0.642819 2.47942
lowerneck -15.5251 2.3978 1.36721
upperneck -0.218178 3.13885 -0.987361
head 2.67295 1.594 -0.338164
rclavicle -1.64991e-014 -4.77083e-015
rhumerus -26.4983 19.2638 -83.9923
rradius 105.514
rwrist -15.0244
rhand -4.585 -22.1992
rfingers 7.12502
rthumb 21.1921 -51.0608
lclavicle -1.64991e-014 -4.77083e-015
lhumerus -32.5308 -19.239 100.954
lradius 119.354
lwrist 13.0859
lhand -16.3544 -30.4577
lfingers 7.12502
lthumb 9.85821 -0.708466
rfemur -21.4623 -11.7612 14.5845
rtibia 65.1831
rfoot -37.0547 -10.3799
rtoes -11.5326
lfemur -30.4648 3.6016 -18.8408
ltibia 75.8515
lfoot -33.2227 -12.773
ltoes -14.1527
261
root -1.46922 15.5138 4.10189 -119.122 84.7469 -130.42
lowerback 19.7804 0.903301 -2.04129
upperback -1.89905 0.939485 1.58983
thorax -13.3818 0.672099 2.66305
lowerneck -15.7756 2.26516 1.53478
upperneck 1.57238 2.8888 -0.952211
head 3.34753 1.45042 -0.362498
rclavicle -2.13694e-015 -1.23246e-014
rhumerus -25.9701 21.4219 -80.7212
rradius 111.561
rwrist -15.688
rhand -3.03787 -21.7433
rfingers 7.12502
rthumb 22.6776 -50.4308
lclavicle -2.13694e-015 -1.23246e-014
lhumerus -31.7846 -20.4107 97.1166
lradius 125.172
lwrist 11.4553
lhand -15.3502 -32.2762
lfingers 7.12502
lthumb 10.827 -2.57525
rfemur -14.2592 -10.9054 14.2516
rtibia 60.3001
rfoot -32.3327 -9.11392
rtoes -11.447
lfemur -23.8114 3.42224 -17.5536
ltibia 71.0504
lfoot -28.7683 -15.8295
ltoes -16.9495
262
root -0.844509 15.9355 4.19025 -123.066 84.2133 -132.981
lowerback 17.4973 0.935182 -1.80574
upperback -2.26963 1.06722 1.64126
thorax -12.4739 0.706244 2.5514
lowerneck -15.3874 2.26208 1.81861
upperneck 3.20833 2.80461 -0.981613
head 3.8611 1.39369 -0.426831
rclavicle -1.92821e-014 1.64991e-014
rhumerus -26.3868 23.0187 -77.8865
rradius 116.216
rwrist -15.1164
rhand -0.566977 -21.8134
rfingers 7.12502
rthumb 25.0472 -50.1911
lclavicle -1.92821e-014 1.64991e-014
lhumerus -32.109 -19.9265 91.9853
lradius 129.684
lwrist 11.5447
lhand -16.6032 -33.1825
lfingers 7.12502
lthumb 9.61818 -3.4221
rfemur -8.32978 -9.88455 14.5975
rtibia 54.6423
rfoot -23.7415 -7.64141
rtoes -12.927
lfemur -18.2715 3.68787 -16.0089
ltibia 65.4097
lfoot -22.5077 -18.9469
ltoes -19.461
263
root -0.168451 16.4472 4.21725 -131.243 83.6992 -140.119
lowerback 14.6265 0.850633 -1.54323
upperback -2.62203 1.0304 1.6028
thorax -11.1754 0.657341 2.37684
lowerneck -14.9311 2.17499 1.82677
upperneck 5.25518 2.66677 -0.925075
head 4.00859 1.31442 -0.373197
rclavicle 1.93815e-014 -5.56597e-015
rhumerus -26.9658 24.6175 -74.615
rradius 119.733
rwrist -11.608
rhand 1.15508 -21.8108
rfingers 7.12502
rthumb 26.6963 -49.9479
lclavicle 1.93815e-014 -5.56597e-015
lhumerus -33.0077 -19.2382 86.1959
lradius 133.108
lwrist 12.9285
lhand -18.7809 -33.0598
lfingers 7.12502
lthumb 7.51663 -3.21333
rfemur -3.14326 -9.7709 14.2298
rtibia 49.0441
rfoot -13.1592 -4.85548
rtoes -14.0139
lfemur -12.7066 3.0671 -15.3687
ltibia 58.814
lfoot -15.4172 -20.7657
ltoes -29.0165
